<?xml version="1.0" standalone="no"?><!DOCTYPE svg PUBLIC "-//W3C//DTD SVG 1.1//EN" "http://www.w3.org/Graphics/SVG/1.1/DTD/svg11.dtd"><svg t="1577857607110" class="icon" viewBox="0 0 1024 1024" version="1.1" xmlns="http://www.w3.org/2000/svg" p-id="5135" xmlns:xlink="http://www.w3.org/1999/xlink" width="200" height="200"><defs><style type="text/css"></style></defs><path d="M1002.447958 485.898949l-95.852187-75.014146c-5.11001-4.000008-11.184022-6.114012-17.566035-6.114012a28.884056 28.884056 0 0 0-21.334041 9.474018c-5.440011 5.996012-8.000016 13.788027-7.208014 21.938043l4.130008 42.492083h-144.786283v-20.37604a34.474067 34.474067 0 0 0 15.658031-10.754021 34.440067 34.440067 0 0 0 7.282014-28.536056l-5.426011-28.154055c1.630003-1.434003 14.946029-8.586017 12.890025-32.746064-0.740001-8.702017-4.714009-16.362032-10.31002-22.248043a37.866074 37.866074 0 0 0 5.452011-23.920047 38.092074 38.092074 0 0 0-36.606072-34.140066c-20.60404-46.544091-53.984105-85.526167-97.018189-113.138221L362.632708 4.828009c-13.008025-8.344016-29.470058-5.654011-39.148076 6.396013a29.964059 29.964059 0 0 0-6.240012 13.818027l-153.5203 388.790759a110.410216 110.410216 0 0 0-41.644082-8.176016H36.116071c-10.930021 0-20.47004 6.208012-24.892049 16.210032-4.422009 9.99602-2.600005 21.234041 4.756009 29.322057L71.288139 512.001 15.982031 572.817119c-7.356014 8.086016-9.178018 19.322038-4.756009 29.318057 4.422009 9.99802 13.958027 16.210032 24.892049 16.210032h85.964167a110.220215 110.220215 0 0 0 41.640082-8.182016l153.5243 388.796759a29.980059 29.980059 0 0 0 6.240012 13.818027c5.906012 7.358014 14.340028 11.224022 22.974045 11.224022 5.510011 0 11.104022-1.576003 16.174031-4.828009l249.114487-159.832313c43.036084-27.610054 76.414149-66.59013 97.018189-113.134221 18.700037-0.670001 34.596068-15.014029 36.610072-34.162066a37.826074 37.826074 0 0 0-5.442011-23.878047 38.018074 38.018074 0 0 0 10.29802-22.290043c1.064002-10.12202-1.892004-20.074039-8.324016-28.018055a38.860076 38.860076 0 0 0-4.568009-4.710009l5.426011-28.154055a34.442067 34.442067 0 0 0-7.282015-28.536056 34.428067 34.428067 0 0 0-15.65803-10.754021v-20.37604h144.786283l-4.132008 42.492083c-0.792002 8.148016 1.768003 15.942031 7.208014 21.936043a28.868056 28.868056 0 0 0 21.334041 9.476018c6.380012 0 12.454024-2.114004 17.566035-6.114012l95.854187-75.014146c8.082016-6.326012 12.716025-15.842031 12.716025-26.104051s-4.628009-19.776039-12.712025-26.102051zM715.541398 315.096615c0.306001 2.906006-0.254 8.166016-7.296015 9.014018l-116.652228 12.272024c-4.486009 0.470001-8.550017-2.898006-9.014017-7.318014-0.306001-2.902006 1.702003-8.550017 7.296014-9.010018l116.650228-12.272024c6.010012-0.520001 8.580017 3.178006 9.016018 7.314014z m-104.436204-63.614124a6.460013 6.460013 0 0 1 6.452012-6.452012 6.460013 6.460013 0 0 1 6.452013 6.452012 6.460013 6.460013 0 0 1-6.452013 6.452013 6.460013 6.460013 0 0 1-6.452012-6.452013z m41.636081-9.388018a228.240446 228.240446 0 0 1 24.262047 38.622075l-46.856091 4.93001c13.906027-5.14201 23.864047-18.496036 23.864046-34.166067 0-3.248006-0.468001-6.384012-1.270002-9.386018z m-57.192112-52.180102a230.52845 230.52845 0 0 1 35.020069 27.558054 36.210071 36.210071 0 0 0-13.012026-2.442005c-20.102039 0-36.454071 16.354032-36.454071 36.454071 0 18.330036 13.610027 33.498065 31.248061 36.038071l-20.30204 2.134004c-8.030016-18.736037-19.672038-35.95007-34.120066-50.312099L349.132682 31.814062l246.416481 158.100309z m-231.766452-101.240198l172.996337 171.948336c11.562023 11.492022 20.868041 25.254049 27.376054 40.212079a38.818076 38.818076 0 0 0-3.094006 3.352006c-6.432013 7.946016-9.388018 17.896035-8.322016 28.038055a38.100074 38.100074 0 0 0 10.27402 22.310043 37.846074 37.846074 0 0 0-5.418011 23.860047c1.604003 15.24603 12.032024 27.436054 25.65605 32.114063l2.440005 19.360038c1.798004 14.276028 12.230024 25.62005 25.62805 29.100056v19.710039H246.092481l-26.866053-23.914047 144.556283-366.090715z m-28.300056-28.126055l5.13201 5.10201-163.088318 413.024807H170.380333l165.102322-418.126817zM122.084238 588.343149H42.416083l60.248118-66.248129a15.000029 15.000029 0 0 0 0-20.18604l-60.250118-66.250129h79.670155a80.404157 80.404157 0 0 1 30.62406 6.078012L129.796254 499.760976h0.032a33.092065 33.092065 0 0 0-2.360005 12.242024c0 18.378036 14.950029 33.326065 33.326065 33.326065h40.172079l-25.50005 22.700044a80.222157 80.222157 0 0 1-53.382105 20.31404z m213.398417 375.112733L189.970371 594.945162a110.464216 110.464216 0 0 0 5.386011-4.458009l145.258283 367.868719-5.13201 5.10001z m-116.256227-394.21277l26.866053-23.914047h81.91616c8.284016 0 15.002029-6.714013 15.002029-15.002029s-6.716013-15.002029-15.002029-15.00203H160.792314c-1.832004 0-3.324006-1.492003-3.324006-3.324006s1.492003-3.324006 3.324006-3.324006h450.52688v6.648012H371.010725c-8.284016 0-15.002029 6.714013-15.00203 15.00203s6.716013 15.002029 15.00203 15.002029h240.308469v19.710039c-13.398026 3.480007-23.830047 14.824029-25.62805 29.100056l-2.440005 19.358038c-13.624027 4.680009-24.052047 16.878033-25.65805 32.136063a37.844074 37.844074 0 0 0 5.454011 23.900047c-5.594011 5.892012-9.396018 13.574027-10.31002 22.268043-1.064002 10.12402 1.892004 20.074039 8.324016 28.020055a38.818076 38.818076 0 0 0 3.094006 3.352006c-6.506013 14.958029-15.814031 28.716056-27.376054 40.212079l-172.996337 171.948336-144.556283-366.090715z m376.322735 264.846517l-246.416481 158.100309 208.796408-207.532405c14.450028-14.360028 26.090051-31.576062 34.120066-50.312099l20.30204 2.136004c-17.638034 2.540005-31.248061 17.710035-31.248061 36.038071 0 20.102039 16.354032 36.454071 36.454071 36.454071 4.588009 0 8.964018-0.888002 13.010026-2.442005a230.38645 230.38645 0 0 1-35.018069 27.558054z m22.008043-68.020133c3.558007 0 6.452013 2.894006 6.452013 6.452013s-2.894006 6.452013-6.452013 6.452012-6.452013-2.894006-6.452012-6.452012 2.894006-6.452013 6.452012-6.452013z m35.184069 15.838031c0.802002-3.000006 1.270002-6.136012 1.270002-9.384018 0-15.672031-9.958019-29.024057-23.864046-34.166067l46.856091 4.93001a228.098446 228.098446 0 0 1-24.262047 38.620075z m67.654132-119.152233c-0.464001 4.422009-4.598009 7.774015-9.014018 7.298015-8.238016-0.890002-15.622031 5.11201-16.488032 13.350026a15.002029 15.002029 0 0 0 13.350026 16.488032c2.904006 0.304001 7.550015 3.316006 7.294015 9.030018-0.252 5.620011-4.584009 7.786015-9.012018 7.298014l-116.652228-12.272024c-6.594013-0.908002-7.602015-6.106012-7.294014-9.030018 0.464001-4.422009 4.610009-7.754015 9.012017-7.298014l72.450142 7.622015a15.002029 15.002029 0 0 0 3.142006-29.838058l-72.450141-7.622015c-6.450013-0.744001-7.602015-6.108012-7.294015-9.030018 0.464001-4.422009 4.610009-7.768015 9.012018-7.298014l116.654228 12.272024c6.682013 0.814002 7.598015 6.108012 7.290014 9.030017z m-11.548023-68.844134a4.480009 4.480009 0 0 1 3.504007 1.652003c0.508001 0.616001 1.310003 1.924004 0.958002 3.752008l-4.584009 23.782046-95.186186-10.01402 1.916004-15.196029a4.552009 4.552009 0 0 1 4.510009-3.976008h88.882173z m-67.526131-30.004059v-103.812202h48.508094v103.812202H641.321253z m71.030138-135.466264a4.480009 4.480009 0 0 1-3.504007 1.652003h-88.880173a4.552009 4.552009 0 0 1-4.510009-3.976008l-1.916004-15.196029 95.186186-10.01402 4.584009 23.782046a4.484009 4.484009 0 0 1-0.960002 3.752008z m0.748002-58.164114l-116.652228 12.272024c-4.432009 0.460001-8.548017-2.878006-9.016018-7.314014-0.306001-2.906006 1.596003-8.468017 7.296015-9.014018h0.002l116.652227-12.272024c4.412009-0.486001 8.548017 2.876006 9.016018 7.314015 0.306001 2.908006-0.610001 8.254016-7.298014 9.014017z m154.436301 145.050283h-147.704288v-6.648012h147.704288v6.648012z m23.128046 72.162141l7.198014-74.038144c0.094-0.964002-7.196014-76.94015-7.196014-76.94015s94.500185 74.790146 94.500184 75.488147c0 0.700001-94.502185 75.490147-94.502184 75.490147z" fill="" p-id="5136"></path></svg>